<svg width="83" height="126" viewBox="0 0 83 126" fill="none" xmlns="http://www.w3.org/2000/svg">
<g opacity="0.4" clip-path="url(#clip0_2401_8148)">
<path d="M-36.0591 11.4546C-34.2516 11.4546 -32.7863 9.98936 -32.7863 8.18188C-32.7863 6.37441 -34.2516 4.90916 -36.0591 4.90916V11.4546ZM-19.0579 4.90916C-20.8654 4.90916 -22.3306 6.37441 -22.3306 8.18188C-22.3306 9.98936 -20.8654 11.4546 -19.0579 11.4546V4.90916ZM-17.3578 11.4546C-15.5503 11.4546 -14.085 9.98936 -14.085 8.18188C-14.085 6.37441 -15.5503 4.90916 -17.3578 4.90916V11.4546ZM-0.356583 4.90916C-2.16406 4.90916 -3.62931 6.37441 -3.62931 8.18188C-3.62931 9.98936 -2.16406 11.4546 -0.356583 11.4546V4.90916ZM1.34354 11.4546C3.15101 11.4546 4.61626 9.98936 4.61626 8.18188C4.61626 6.37441 3.15101 4.90916 1.34354 4.90916V11.4546ZM18.3447 4.90916C16.5372 4.90916 15.072 6.37441 15.072 8.18188C15.072 9.98936 16.5372 11.4546 18.3447 11.4546V4.90916ZM20.0448 11.4546C21.8523 11.4546 23.3176 9.98936 23.3176 8.18188C23.3176 6.37441 21.8523 4.90916 20.0448 4.90916V11.4546ZM37.046 4.90916C35.2385 4.90916 33.7733 6.37441 33.7733 8.18188C33.7733 9.98936 35.2385 11.4546 37.046 11.4546V4.90916ZM38.7461 11.4546C40.5536 11.4546 42.0189 9.98936 42.0189 8.18188C42.0189 6.37441 40.5536 4.90916 38.7461 4.90916V11.4546ZM55.7473 4.90916C53.9398 4.90916 52.4746 6.37441 52.4746 8.18188C52.4746 9.98936 53.9398 11.4546 55.7473 11.4546V4.90916ZM57.4474 11.4546C59.2549 11.4546 60.7202 9.98936 60.7202 8.18188C60.7202 6.37441 59.2549 4.90916 57.4474 4.90916V11.4546ZM74.4486 4.90916C72.6411 4.90916 71.1759 6.37441 71.1759 8.18188C71.1759 9.98936 72.6411 11.4546 74.4486 11.4546V4.90916ZM76.1487 11.4546C77.9562 11.4546 79.4215 9.98936 79.4215 8.18188C79.4215 6.37441 77.9562 4.90916 76.1487 4.90916V11.4546ZM93.1499 4.90916C91.3424 4.90916 89.8772 6.37441 89.8772 8.18188C89.8772 9.98936 91.3424 11.4546 93.1499 11.4546V4.90916ZM-36.9091 11.4546H-36.0591V4.90916H-36.9091V11.4546ZM-19.0579 11.4546H-17.3578V4.90916H-19.0579V11.4546ZM-0.356583 11.4546H1.34354V4.90916H-0.356583V11.4546ZM18.3447 11.4546H20.0448V4.90916H18.3447V11.4546ZM37.046 11.4546H38.7461V4.90916H37.046V11.4546ZM55.7473 11.4546H57.4474V4.90916H55.7473V11.4546ZM74.4486 11.4546H76.1487V4.90916H74.4486V11.4546ZM93.1499 11.4546H94V4.90916H93.1499V11.4546Z" fill="white"/>
<path d="M-36.059 63.8181C-34.2515 63.8181 -32.7863 62.3529 -32.7863 60.5454C-32.7863 58.7379 -34.2515 57.2727 -36.059 57.2727V63.8181ZM-19.0578 57.2727C-20.8653 57.2727 -22.3305 58.7379 -22.3305 60.5454C-22.3305 62.3529 -20.8653 63.8181 -19.0578 63.8181V57.2727ZM-17.3577 63.8181C-15.5502 63.8181 -14.085 62.3529 -14.085 60.5454C-14.085 58.7379 -15.5502 57.2727 -17.3577 57.2727V63.8181ZM-0.356522 57.2727C-2.164 57.2727 -3.62925 58.7379 -3.62925 60.5454C-3.62925 62.3529 -2.164 63.8181 -0.356522 63.8181V57.2727ZM1.3436 63.8181C3.15107 63.8181 4.61632 62.3529 4.61632 60.5454C4.61632 58.7379 3.15107 57.2727 1.3436 57.2727V63.8181ZM18.3448 57.2727C16.5373 57.2727 15.0721 58.7379 15.0721 60.5454C15.0721 62.3529 16.5373 63.8181 18.3448 63.8181V57.2727ZM20.0449 63.8181C21.8524 63.8181 23.3176 62.3529 23.3176 60.5454C23.3176 58.7379 21.8524 57.2727 20.0449 57.2727V63.8181ZM37.0461 57.2727C35.2386 57.2727 33.7734 58.7379 33.7734 60.5454C33.7734 62.3529 35.2386 63.8181 37.0461 63.8181V57.2727ZM38.7462 63.8181C40.5537 63.8181 42.0189 62.3529 42.0189 60.5454C42.0189 58.7379 40.5537 57.2727 38.7462 57.2727V63.8181ZM55.7474 57.2727C53.9399 57.2727 52.4747 58.7379 52.4747 60.5454C52.4747 62.3529 53.9399 63.8181 55.7474 63.8181V57.2727ZM57.4475 63.8181C59.255 63.8181 60.7202 62.3529 60.7202 60.5454C60.7202 58.7379 59.255 57.2727 57.4475 57.2727V63.8181ZM74.4487 57.2727C72.6412 57.2727 71.176 58.7379 71.176 60.5454C71.176 62.3529 72.6412 63.8181 74.4487 63.8181V57.2727ZM76.1488 63.8181C77.9563 63.8181 79.4215 62.3529 79.4215 60.5454C79.4215 58.7379 77.9563 57.2727 76.1488 57.2727V63.8181ZM93.15 57.2727C91.3425 57.2727 89.8773 58.7379 89.8773 60.5454C89.8773 62.3529 91.3425 63.8181 93.15 63.8181V57.2727ZM-36.9091 63.8181H-36.059V57.2727H-36.9091V63.8181ZM-19.0578 63.8181H-17.3577V57.2727H-19.0578V63.8181ZM-0.356522 63.8181H1.3436V57.2727H-0.356522V63.8181ZM18.3448 63.8181H20.0449V57.2727H18.3448V63.8181ZM37.0461 63.8181H38.7462V57.2727H37.0461V63.8181ZM55.7474 63.8181H57.4475V57.2727H55.7474V63.8181ZM74.4487 63.8181H76.1488V57.2727H74.4487V63.8181ZM93.15 63.8181H94V57.2727H93.15V63.8181Z" fill="white"/>
<path d="M-36.059 116.182C-34.2515 116.182 -32.7863 114.717 -32.7863 112.909C-32.7863 111.102 -34.2515 109.636 -36.059 109.636V116.182ZM-19.0578 109.636C-20.8653 109.636 -22.3305 111.102 -22.3305 112.909C-22.3305 114.717 -20.8653 116.182 -19.0578 116.182V109.636ZM-17.3577 116.182C-15.5502 116.182 -14.085 114.717 -14.085 112.909C-14.085 111.102 -15.5502 109.636 -17.3577 109.636V116.182ZM-0.356522 109.636C-2.164 109.636 -3.62925 111.102 -3.62925 112.909C-3.62925 114.717 -2.164 116.182 -0.356522 116.182V109.636ZM1.3436 116.182C3.15107 116.182 4.61632 114.717 4.61632 112.909C4.61632 111.102 3.15107 109.636 1.3436 109.636V116.182ZM18.3448 109.636C16.5373 109.636 15.0721 111.102 15.0721 112.909C15.0721 114.717 16.5373 116.182 18.3448 116.182V109.636ZM20.0449 116.182C21.8524 116.182 23.3176 114.717 23.3176 112.909C23.3176 111.102 21.8524 109.636 20.0449 109.636V116.182ZM37.0461 109.636C35.2386 109.636 33.7734 111.102 33.7734 112.909C33.7734 114.717 35.2386 116.182 37.0461 116.182V109.636ZM38.7462 116.182C40.5537 116.182 42.0189 114.717 42.0189 112.909C42.0189 111.102 40.5537 109.636 38.7462 109.636V116.182ZM55.7474 109.636C53.9399 109.636 52.4747 111.102 52.4747 112.909C52.4747 114.717 53.9399 116.182 55.7474 116.182V109.636ZM57.4475 116.182C59.255 116.182 60.7202 114.717 60.7202 112.909C60.7202 111.102 59.255 109.636 57.4475 109.636V116.182ZM74.4487 109.636C72.6412 109.636 71.176 111.102 71.176 112.909C71.176 114.717 72.6412 116.182 74.4487 116.182V109.636ZM76.1488 116.182C77.9563 116.182 79.4215 114.717 79.4215 112.909C79.4215 111.102 77.9563 109.636 76.1488 109.636V116.182ZM93.15 109.636C91.3425 109.636 89.8773 111.102 89.8773 112.909C89.8773 114.717 91.3425 116.182 93.15 116.182V109.636ZM-36.9091 116.182H-36.059V109.636H-36.9091V116.182ZM-19.0578 116.182H-17.3577V109.636H-19.0578V116.182ZM-0.356522 116.182H1.3436V109.636H-0.356522V116.182ZM18.3448 116.182H20.0449V109.636H18.3448V116.182ZM37.0461 116.182H38.7462V109.636H37.0461V116.182ZM55.7474 116.182H57.4475V109.636H55.7474V116.182ZM74.4487 116.182H76.1488V109.636H74.4487V116.182ZM93.15 116.182H94V109.636H93.15V116.182Z" fill="white"/>
<path d="M-36.059 37.6365C-34.2515 37.6365 -32.7863 36.1712 -32.7863 34.3638C-32.7863 32.5563 -34.2515 31.091 -36.059 31.091V37.6365ZM-19.0578 31.091C-20.8653 31.091 -22.3305 32.5563 -22.3305 34.3638C-22.3305 36.1712 -20.8653 37.6365 -19.0578 37.6365V31.091ZM-17.3577 37.6365C-15.5502 37.6365 -14.085 36.1712 -14.085 34.3638C-14.085 32.5563 -15.5502 31.091 -17.3577 31.091V37.6365ZM-0.356522 31.091C-2.164 31.091 -3.62925 32.5563 -3.62925 34.3638C-3.62925 36.1712 -2.164 37.6365 -0.356522 37.6365V31.091ZM1.3436 37.6365C3.15107 37.6365 4.61632 36.1712 4.61632 34.3638C4.61632 32.5563 3.15107 31.091 1.3436 31.091V37.6365ZM18.3448 31.091C16.5373 31.091 15.0721 32.5563 15.0721 34.3638C15.0721 36.1712 16.5373 37.6365 18.3448 37.6365V31.091ZM20.0449 37.6365C21.8524 37.6365 23.3176 36.1712 23.3176 34.3638C23.3176 32.5563 21.8524 31.091 20.0449 31.091V37.6365ZM37.0461 31.091C35.2386 31.091 33.7734 32.5563 33.7734 34.3638C33.7734 36.1712 35.2386 37.6365 37.0461 37.6365V31.091ZM38.7462 37.6365C40.5537 37.6365 42.0189 36.1712 42.0189 34.3638C42.0189 32.5563 40.5537 31.091 38.7462 31.091V37.6365ZM55.7474 31.091C53.9399 31.091 52.4747 32.5563 52.4747 34.3638C52.4747 36.1712 53.9399 37.6365 55.7474 37.6365V31.091ZM57.4475 37.6365C59.255 37.6365 60.7202 36.1712 60.7202 34.3638C60.7202 32.5563 59.255 31.091 57.4475 31.091V37.6365ZM74.4487 31.091C72.6412 31.091 71.176 32.5563 71.176 34.3638C71.176 36.1712 72.6412 37.6365 74.4487 37.6365V31.091ZM76.1488 37.6365C77.9563 37.6365 79.4215 36.1712 79.4215 34.3638C79.4215 32.5563 77.9563 31.091 76.1488 31.091V37.6365ZM93.15 31.091C91.3425 31.091 89.8773 32.5563 89.8773 34.3638C89.8773 36.1712 91.3425 37.6365 93.15 37.6365V31.091ZM-36.9091 37.6365H-36.059V31.091H-36.9091V37.6365ZM-19.0578 37.6365H-17.3577V31.091H-19.0578V37.6365ZM-0.356522 37.6365H1.3436V31.091H-0.356522V37.6365ZM18.3448 37.6365H20.0449V31.091H18.3448V37.6365ZM37.0461 37.6365H38.7462V31.091H37.0461V37.6365ZM55.7474 37.6365H57.4475V31.091H55.7474V37.6365ZM74.4487 37.6365H76.1488V31.091H74.4487V37.6365ZM93.15 37.6365H94V31.091H93.15V37.6365Z" fill="white"/>
<path d="M-36.059 90C-34.2515 90 -32.7863 88.5348 -32.7863 86.7273C-32.7863 84.9198 -34.2515 83.4546 -36.059 83.4546V90ZM-19.0578 83.4546C-20.8653 83.4546 -22.3305 84.9198 -22.3305 86.7273C-22.3305 88.5348 -20.8653 90 -19.0578 90V83.4546ZM-17.3577 90C-15.5502 90 -14.085 88.5348 -14.085 86.7273C-14.085 84.9198 -15.5502 83.4546 -17.3577 83.4546V90ZM-0.356522 83.4546C-2.164 83.4546 -3.62925 84.9198 -3.62925 86.7273C-3.62925 88.5348 -2.164 90 -0.356522 90V83.4546ZM1.3436 90C3.15107 90 4.61632 88.5348 4.61632 86.7273C4.61632 84.9198 3.15107 83.4546 1.3436 83.4546V90ZM18.3448 83.4546C16.5373 83.4546 15.0721 84.9198 15.0721 86.7273C15.0721 88.5348 16.5373 90 18.3448 90V83.4546ZM20.0449 90C21.8524 90 23.3176 88.5348 23.3176 86.7273C23.3176 84.9198 21.8524 83.4546 20.0449 83.4546V90ZM37.0461 83.4546C35.2386 83.4546 33.7734 84.9198 33.7734 86.7273C33.7734 88.5348 35.2386 90 37.0461 90V83.4546ZM38.7462 90C40.5537 90 42.0189 88.5348 42.0189 86.7273C42.0189 84.9198 40.5537 83.4546 38.7462 83.4546V90ZM55.7474 83.4546C53.9399 83.4546 52.4747 84.9198 52.4747 86.7273C52.4747 88.5348 53.9399 90 55.7474 90V83.4546ZM57.4475 90C59.255 90 60.7202 88.5348 60.7202 86.7273C60.7202 84.9198 59.255 83.4546 57.4475 83.4546V90ZM74.4487 83.4546C72.6412 83.4546 71.176 84.9198 71.176 86.7273C71.176 88.5348 72.6412 90 74.4487 90V83.4546ZM76.1488 90C77.9563 90 79.4215 88.5348 79.4215 86.7273C79.4215 84.9198 77.9563 83.4546 76.1488 83.4546V90ZM93.15 83.4546C91.3425 83.4546 89.8773 84.9198 89.8773 86.7273C89.8773 88.5348 91.3425 90 93.15 90V83.4546ZM-36.9091 90H-36.059V83.4546H-36.9091V90ZM-19.0578 90H-17.3577V83.4546H-19.0578V90ZM-0.356522 90H1.3436V83.4546H-0.356522V90ZM18.3448 90H20.0449V83.4546H18.3448V90ZM37.0461 90H38.7462V83.4546H37.0461V90ZM55.7474 90H57.4475V83.4546H55.7474V90ZM74.4487 90H76.1488V83.4546H74.4487V90ZM93.15 90H94V83.4546H93.15V90Z" fill="white"/>
</g>
<defs>
<clipPath id="clip0_2401_8148">
<rect width="114.545" height="126" fill="white" transform="translate(-32)"/>
</clipPath>
</defs>
</svg>
